<?xml version="1.0" encoding="UTF-8"?>
<!DOCTYPE svg PUBLIC "-//W3C//DTD SVG 1.1//EN" "http://www.w3.org/Graphics/SVG/1.1/DTD/svg11.dtd">
<!-- Creator: CorelDRAW X7 -->
<svg xmlns="http://www.w3.org/2000/svg" xml:space="preserve" width="0.979213in" height="0.204713in" version="1.1" style="shape-rendering:geometricPrecision; text-rendering:geometricPrecision; image-rendering:optimizeQuality; fill-rule:evenodd; clip-rule:evenodd"
viewBox="0 0 167 35"
 xmlns:xlink="http://www.w3.org/1999/xlink">
 <defs>
  <style type="text/css">
   <![CDATA[
    .fil0 {fill:none}
    .fil1 {fill:#575757}
    .fil5 {fill:#B3B3B3}
    .fil4 {fill:#E8E8E8}
    .fil2 {fill:#EDEDED}
    .fil3 {fill:whitesmoke}
    .fil6 {fill:#FAFAFA}
    .fil7 {fill:#575757;fill-rule:nonzero}
   ]]>
  </style>
    <mask id="id0">
  <linearGradient id="id1" gradientUnits="userSpaceOnUse" x1="21.558" y1="21.5163" x2="21.558" y2="23.2358">
   <stop offset="0" style="stop-opacity:1; stop-color:white"/>
   <stop offset="1" style="stop-opacity:0; stop-color:white"/>
  </linearGradient>
     <rect style="fill:url(#id1)" x="20" y="21" width="2.74731" height="3.18524"/>
    </mask>
    <mask id="id2">
  <linearGradient id="id3" gradientUnits="userSpaceOnUse" x1="30.1881" y1="14.309" x2="29.1737" y2="13.9162">
   <stop offset="0" style="stop-opacity:1; stop-color:white"/>
   <stop offset="1" style="stop-opacity:0; stop-color:white"/>
  </linearGradient>
     <rect style="fill:url(#id3)" x="28" y="12" width="2.59326" height="4.07253"/>
    </mask>
 </defs>
 <g id="Layer_x0020_1">
  <metadata id="CorelCorpID_0Corel-Layer"/>
  <rect class="fil0" width="167.314" height="34.9786"/>
  <g id="_531264256">
   <path class="fil1" d="M24 3c7,0 13,5 14,12 0,0 -1,0 -1,0 -4,0 -8,4 -8,8 0,2 2,5 4,6 -3,2 -6,3 -9,3 -8,0 -14,-7 -14,-14 0,-8 6,-15 14,-15z"/>
   <g>
    <path class="fil2" d="M20 9l0 2c0,0 0,-1 1,0l1 0 8 4c1,1 1,1 1,2l0 -3c0,-1 0,-1 -1,-2l0 0 0 0 -7 -4c-2,0 -3,1 -3,1zm2 2l0 0 0 0z"/>
   </g>
   <path class="fil3" d="M22 8l0 0c-1,0 -2,1 -2,1l0 18c0,0 1,1 2,1l0 0c0,0 1,-1 1,-1l0 -18c0,0 -1,-1 -1,-1z"/>
   <path class="fil4" style="mask:url(#id0)" d="M20 21l0 3c0,0 0,0 1,-1 0,0 1,-1 2,-1l0 -1c0,0 0,0 0,0 0,0 -3,0 -3,0z"/>
   <path class="fil5" style="mask:url(#id2)" d="M30 12l-2 2 2 1c0,1 1,1 1,1l0 0 0 -2c0,-1 0,-1 -1,-2l0 0z"/>
   <g>
    <path class="fil6" d="M20 24l0 -3c0,-1 0,-1 1,-2l1 0 8 -4c1,-1 1,-1 1,-2l0 3c0,1 0,1 -1,2l0 0 0 0 -9 4c-1,1 -1,1 -1,2zm2 -5l0 0 0 0z"/>
   </g>
  </g>
  <path class="fil7" d="M37 28c-1,0 -2,0 -3,-1 -1,-1 -2,-3 -2,-4 0,-2 1,-3 2,-4 1,-1 2,-2 3,-2 2,0 3,1 4,2 1,1 1,2 1,4l0 0 -8 0c0,1 1,2 1,3 1,0 2,1 3,1 1,0 2,-1 2,-2l2 1c0,0 -1,1 -2,2 -1,0 -1,0 -3,0zm-3 -6l6 0c0,-1 0,-2 -1,-2 0,-1 -1,-1 -2,-1 0,0 -1,0 -2,1 0,0 0,1 -1,2z"/>
  <path id="1" class="fil7" d="M46 18l2 0 0 1 0 0c0,0 0,-1 1,-1 1,0 1,-1 2,-1 1,0 2,1 3,2 0,0 1,1 1,3l0 6 -2 0 0 -6c0,-2 -1,-3 -3,-3 0,0 -1,1 -2,1 0,1 0,2 0,2l0 6 -2 0 0 -10z"/>
  <path id="2" class="fil7" d="M60 25c0,0 0,1 1,1 0,0 1,1 1,1 1,0 2,-1 2,-1 1,-1 1,-2 1,-2 0,-1 -1,-1 -2,-1 -1,0 -2,0 -2,0 -1,1 -1,1 -1,2zm3 -8c1,0 2,1 3,2 1,0 1,1 1,3l0 6 -2 0 0 -1 0 0c-1,1 -2,1 -3,1 -1,0 -2,0 -3,-1 -1,0 -1,-1 -1,-2 0,-1 0,-2 1,-3 1,0 2,-1 3,-1 2,0 3,1 3,1l0 0c0,-1 0,-2 0,-2 -1,-1 -2,-1 -2,-1 -1,0 -2,1 -3,2l-2 -2c1,-1 3,-2 5,-2z"/>
  <path id="3" class="fil7" d="M71 18l2 0 0 1 0 0c0,0 1,-1 1,-1 1,0 1,-1 2,-1 1,0 2,1 3,2 1,0 1,1 1,3l0 6 -2 0 0 -6c0,-2 -1,-3 -2,-3 -1,0 -2,1 -2,1 -1,1 -1,2 -1,2l0 6 -2 0 0 -10z"/>
  <path id="4" class="fil7" d="M89 27c1,0 1,-1 2,-1 1,-1 1,-2 1,-3 0,-1 0,-2 -1,-3 -1,0 -1,-1 -2,-1 -1,0 -2,1 -3,1 0,1 -1,2 -1,3 0,1 1,2 1,3 1,0 2,1 3,1zm-1 1c-1,0 -2,0 -3,-1 -1,-1 -2,-3 -2,-4 0,-2 1,-3 2,-4 1,-1 2,-2 3,-2 1,0 2,1 2,1 1,0 1,1 2,1l0 0 0 -1 0 -5 2 0 0 15 -2 0 0 -1 0 0c-1,0 -1,1 -2,1 0,0 -1,0 -2,0z"/>
  <path id="5" class="fil7" d="M99 25c0,0 0,1 1,1 0,0 1,1 1,1 1,0 2,-1 2,-1 1,-1 1,-2 1,-2 0,-1 -1,-1 -2,-1 -1,0 -2,0 -2,0 -1,1 -1,1 -1,2zm2 -8c2,0 3,1 4,2 1,0 1,1 1,3l0 6 -2 0 0 -1 0 0c-1,1 -2,1 -3,1 -1,0 -2,0 -3,-1 -1,0 -1,-1 -1,-2 0,-1 0,-2 1,-3 1,0 2,-1 3,-1 2,0 3,1 3,1l0 0c0,-1 0,-2 -1,-2 0,-1 -1,-1 -1,-1 -1,0 -2,1 -3,2l-2 -2c1,-1 3,-2 4,-2z"/>
  <polygon id="6" class="fil7" points="119,28 117,28 113,23 112,25 112,28 110,28 110,13 112,13 112,22 116,18 119,18 119,18 115,22 119,28 "/>
  <path id="7" class="fil7" d="M131 28l-2 0 0 -1 0 0c-1,0 -1,1 -2,1 0,0 -1,0 -1,0 -2,0 -3,0 -3,-1 -1,0 -1,-1 -1,-3l0 -6 2 0 0 6c0,2 0,3 2,3 1,0 1,-1 2,-1 1,-1 1,-2 1,-3l0 -5 2 0 0 10z"/>
 </g>
</svg>
